<svg
  width="56"
  height="76"
  viewBox="0 0 56 76"
  fill="none"
  xmlns="http://www.w3.org/2000/svg"
>
  <path
    fill-rule="evenodd"
    clip-rule="evenodd"
    d="M44.5491 5.98761C46.6945 5.4828 48.9661 6.74481 49.4709 8.89023C50.1019 11.0356 48.7137 13.1811 46.6945 13.8121C44.5491 14.3169 42.2774 13.0549 41.7726 10.9094C41.1416 8.76403 42.4036 6.61861 44.5491 5.98761Z"
    fill="#6C45E5"
  />
  <path
    fill-rule="evenodd"
    clip-rule="evenodd"
    d="M14.1345 16.8408C14.2607 16.8408 14.2607 16.8408 14.2607 16.8408C5.55284 24.9177 0.883407 35.6448 0 49.1483V53.4391L50.6066 53.5653L14.2607 16.8408H14.1345Z"
    fill="#6C45E5"
  />
  <path
    fill-rule="evenodd"
    clip-rule="evenodd"
    d="M13.8821 13.5596C22.7162 6.11374 33.6957 1.8229 46.9468 0.687094L0.252441 0.434692L13.8821 13.5596Z"
    fill="#6C45E5"
  />
  <path
    d="M1.02 72.5653V65.5653H5.01V66.2203H1.72V68.6153H3.905V69.2703H1.72V71.9003H5.23V72.5653H1.02ZM6.8675 72.5653V65.6803L7.5675 65.3453V72.5653H6.8675ZM11.2711 72.6853C10.8178 72.6853 10.4261 72.5736 10.0961 72.3503C9.76943 72.1236 9.51776 71.8086 9.34109 71.4053C9.16443 71.002 9.07609 70.5353 9.07609 70.0053C9.07609 69.442 9.16776 68.962 9.35109 68.5653C9.53776 68.1653 9.79609 67.8603 10.1261 67.6503C10.4561 67.4403 10.8378 67.3353 11.2711 67.3353C11.6478 67.3353 11.9894 67.4236 12.2961 67.6003C12.6028 67.777 12.8461 68.0503 13.0261 68.4203C13.2061 68.7903 13.2961 69.2653 13.2961 69.8453C13.2961 69.9053 13.2944 69.9736 13.2911 70.0503C13.2878 70.1236 13.2828 70.2003 13.2761 70.2803H9.80109C9.82776 70.6336 9.89943 70.9436 10.0161 71.2103C10.1361 71.4736 10.3011 71.682 10.5111 71.8353C10.7244 71.9853 10.9861 72.0603 11.2961 72.0603C11.5061 72.0603 11.7078 72.0236 11.9011 71.9503C12.0944 71.8736 12.2744 71.757 12.4411 71.6003L12.8511 72.0703C12.6644 72.247 12.4344 72.3936 12.1611 72.5103C11.8911 72.627 11.5944 72.6853 11.2711 72.6853ZM9.79109 69.6653H12.5811C12.5811 69.3486 12.5328 69.0603 12.4361 68.8003C12.3428 68.5403 12.1978 68.3336 12.0011 68.1803C11.8078 68.027 11.5644 67.9503 11.2711 67.9503C10.8744 67.9503 10.5361 68.087 10.2561 68.3603C9.97943 68.6336 9.82443 69.0686 9.79109 69.6653ZM16.5308 72.6853C16.1108 72.6853 15.7491 72.5786 15.4458 72.3653C15.1424 72.1486 14.9091 71.842 14.7458 71.4453C14.5858 71.0453 14.5058 70.5686 14.5058 70.0153C14.5058 69.4586 14.5891 68.9803 14.7558 68.5803C14.9224 68.1803 15.1608 67.8736 15.4708 67.6603C15.7808 67.4436 16.1508 67.3353 16.5808 67.3353C16.9908 67.3353 17.3408 67.4353 17.6308 67.6353C17.9241 67.832 18.1374 68.1153 18.2708 68.4853L17.6058 68.7303C17.5191 68.4936 17.3874 68.312 17.2108 68.1853C17.0341 68.0586 16.8274 67.9953 16.5908 67.9953C16.1474 67.9953 15.8091 68.167 15.5758 68.5103C15.3458 68.8536 15.2308 69.3553 15.2308 70.0153C15.2308 70.6486 15.3458 71.142 15.5758 71.4953C15.8058 71.8453 16.1291 72.0203 16.5458 72.0203C16.8191 72.0203 17.0541 71.947 17.2508 71.8003C17.4474 71.6536 17.5841 71.4536 17.6608 71.2003L18.3208 71.4203C18.2041 71.8203 17.9874 72.132 17.6708 72.3553C17.3574 72.5753 16.9774 72.6853 16.5308 72.6853ZM20.9752 72.6853C20.6386 72.6853 20.3819 72.5836 20.2052 72.3803C20.0319 72.1736 19.9452 71.8753 19.9452 71.4853V68.0703H19.1002V67.4553H19.9452V65.6853L20.6452 65.3453V67.4553H21.9152V68.0703H20.6452V71.2753C20.6452 71.542 20.6886 71.7353 20.7752 71.8553C20.8652 71.972 21.0086 72.0303 21.2052 72.0303C21.4452 72.0303 21.6969 71.9436 21.9602 71.7703L21.8802 72.4603C21.7469 72.537 21.6036 72.5936 21.4502 72.6303C21.2969 72.667 21.1386 72.6853 20.9752 72.6853ZM22.9458 72.5653V67.4553H23.6458V68.2653C23.7724 67.9653 23.9474 67.7353 24.1708 67.5753C24.3974 67.4153 24.6591 67.3353 24.9558 67.3353C25.2624 67.3353 25.5124 67.417 25.7058 67.5803L25.6008 68.2453C25.5008 68.1753 25.3908 68.1236 25.2708 68.0903C25.1541 68.057 25.0274 68.0403 24.8908 68.0403C24.6441 68.0403 24.4274 68.1103 24.2408 68.2503C24.0541 68.3903 23.9074 68.5853 23.8008 68.8353C23.6974 69.082 23.6458 69.3703 23.6458 69.7003V72.5653H22.9458ZM26.7646 72.5653V67.4553H27.4646V72.5653H26.7646ZM27.1096 66.4303C26.9829 66.4303 26.8746 66.3853 26.7846 66.2953C26.6979 66.2053 26.6546 66.097 26.6546 65.9703C26.6546 65.837 26.6979 65.7253 26.7846 65.6353C26.8746 65.542 26.9829 65.4953 27.1096 65.4953C27.2429 65.4953 27.3529 65.542 27.4396 65.6353C27.5296 65.7253 27.5746 65.837 27.5746 65.9703C27.5746 66.097 27.5296 66.2053 27.4396 66.2953C27.3529 66.3853 27.2429 66.4303 27.1096 66.4303ZM30.9741 72.6853C30.5541 72.6853 30.1925 72.5786 29.8891 72.3653C29.5858 72.1486 29.3525 71.842 29.1891 71.4453C29.0291 71.0453 28.9491 70.5686 28.9491 70.0153C28.9491 69.4586 29.0325 68.9803 29.1991 68.5803C29.3658 68.1803 29.6041 67.8736 29.9141 67.6603C30.2241 67.4436 30.5941 67.3353 31.0241 67.3353C31.4341 67.3353 31.7841 67.4353 32.0741 67.6353C32.3675 67.832 32.5808 68.1153 32.7141 68.4853L32.0491 68.7303C31.9625 68.4936 31.8308 68.312 31.6541 68.1853C31.4775 68.0586 31.2708 67.9953 31.0341 67.9953C30.5908 67.9953 30.2525 68.167 30.0191 68.5103C29.7891 68.8536 29.6741 69.3553 29.6741 70.0153C29.6741 70.6486 29.7891 71.142 30.0191 71.4953C30.2491 71.8453 30.5725 72.0203 30.9891 72.0203C31.2625 72.0203 31.4975 71.947 31.6941 71.8003C31.8908 71.6536 32.0275 71.4536 32.1041 71.2003L32.7641 71.4203C32.6475 71.8203 32.4308 72.132 32.1141 72.3553C31.8008 72.5753 31.4208 72.6853 30.9741 72.6853ZM34.1613 72.5653V65.5653H38.6663V66.6553H35.3163V68.4053H37.4863V69.4953H35.3163V72.5653H34.1613ZM39.7944 72.5653V67.4553H40.9144V72.5653H39.7944ZM40.3494 66.7153C40.166 66.7153 40.0094 66.6503 39.8794 66.5203C39.7494 66.3903 39.6844 66.2336 39.6844 66.0503C39.6844 65.8636 39.7477 65.7053 39.8744 65.5753C40.0044 65.442 40.1627 65.3753 40.3494 65.3753C40.5427 65.3753 40.7027 65.4403 40.8294 65.5703C40.9594 65.7003 41.0244 65.8603 41.0244 66.0503C41.0244 66.237 40.9594 66.3953 40.8294 66.5253C40.6994 66.652 40.5394 66.7153 40.3494 66.7153ZM44.1288 72.6853C43.7454 72.6853 43.3771 72.6036 43.0238 72.4403C42.6704 72.2736 42.3871 72.052 42.1738 71.7753L42.9238 71.1353C43.1004 71.3186 43.2988 71.4636 43.5188 71.5703C43.7388 71.677 43.9538 71.7303 44.1638 71.7303C44.4304 71.7303 44.6371 71.6836 44.7838 71.5903C44.9304 71.4936 45.0038 71.3586 45.0038 71.1853C45.0038 71.0786 44.9704 70.982 44.9038 70.8953C44.8371 70.8053 44.7204 70.717 44.5538 70.6303C44.3871 70.5436 44.1571 70.4453 43.8638 70.3353C43.2904 70.1253 42.8838 69.8986 42.6438 69.6553C42.4038 69.4086 42.2838 69.1003 42.2838 68.7303C42.2838 68.3136 42.4504 67.977 42.7838 67.7203C43.1171 67.4636 43.5504 67.3353 44.0838 67.3353C44.4471 67.3353 44.7821 67.4053 45.0888 67.5453C45.3988 67.682 45.6654 67.8803 45.8888 68.1403L45.1438 68.7553C44.8404 68.4453 44.4804 68.2903 44.0638 68.2903C43.8404 68.2903 43.6621 68.3336 43.5288 68.4203C43.3954 68.5036 43.3288 68.6153 43.3288 68.7553C43.3288 68.8953 43.4054 69.0203 43.5588 69.1303C43.7154 69.237 44.0021 69.362 44.4188 69.5053C44.7988 69.632 45.1088 69.7736 45.3488 69.9303C45.5921 70.087 45.7688 70.267 45.8788 70.4703C45.9921 70.6736 46.0488 70.9086 46.0488 71.1753C46.0488 71.6453 45.8771 72.0153 45.5338 72.2853C45.1938 72.552 44.7254 72.6853 44.1288 72.6853ZM47.3625 72.5653V65.8603L48.4825 65.3453V67.9603C48.6425 67.7536 48.8358 67.5986 49.0625 67.4953C49.2892 67.3886 49.5458 67.3353 49.8325 67.3353C50.2425 67.3353 50.5808 67.4203 50.8475 67.5903C51.1142 67.7603 51.3125 68.0053 51.4425 68.3253C51.5725 68.642 51.6375 69.0203 51.6375 69.4603V72.5653H50.5125V69.6653C50.5125 69.2553 50.4358 68.942 50.2825 68.7253C50.1292 68.5053 49.8808 68.3953 49.5375 68.3953C49.1842 68.3953 48.9192 68.4986 48.7425 68.7053C48.5692 68.912 48.4825 69.2253 48.4825 69.6453V72.5653H47.3625Z"
    fill="white"
  />
</svg>
